<?xml version="1.0" encoding="UTF-8" standalone="no"?>
<svg
   xmlns:dc="http://purl.org/dc/elements/1.1/"
   xmlns:cc="http://creativecommons.org/ns#"
   xmlns:rdf="http://www.w3.org/1999/02/22-rdf-syntax-ns#"
   xmlns:svg="http://www.w3.org/2000/svg"
   xmlns="http://www.w3.org/2000/svg"
   xmlns:sodipodi="http://sodipodi.sourceforge.net/DTD/sodipodi-0.dtd"
   xmlns:inkscape="http://www.inkscape.org/namespaces/inkscape"
   version="1.1"
   x="0px"
   y="0px"
   viewBox="0 0 100 100"
   style="enable-background:new 0 0 100 100;"
   xml:space="preserve"
   id="svg108"
   sodipodi:docname="arrow.svg"
   inkscape:version="0.92.2 5c3e80d, 2017-08-06"><metadata
     id="metadata114"><rdf:RDF><cc:Work
         rdf:about=""><dc:format>image/svg+xml</dc:format><dc:type
           rdf:resource="http://purl.org/dc/dcmitype/StillImage" /><dc:title></dc:title></cc:Work></rdf:RDF></metadata><defs
     id="defs112"><inkscape:perspective
       sodipodi:type="inkscape:persp3d"
       inkscape:vp_x="0 : 50 : 1"
       inkscape:vp_y="0 : 1000 : 0"
       inkscape:vp_z="100 : 50 : 1"
       inkscape:persp3d-origin="50 : 33.333333 : 1"
       id="perspective116" /></defs><sodipodi:namedview
     pagecolor="#ffffff"
     bordercolor="#666666"
     borderopacity="1"
     objecttolerance="10"
     gridtolerance="10"
     guidetolerance="10"
     inkscape:pageopacity="0"
     inkscape:pageshadow="2"
     inkscape:window-width="640"
     inkscape:window-height="480"
     id="namedview110"
     showgrid="false"
     inkscape:zoom="2.36"
     inkscape:cx="50"
     inkscape:cy="50"
     inkscape:window-x="0"
     inkscape:window-y="0"
     inkscape:window-maximized="0"
     inkscape:current-layer="svg108" /><style
     type="text/css"
     id="style2">
	.st0{display:none;}
	.st1{display:inline;}
</style><g
     class="st0"
     id="g8"><g
       class="st1"
       id="g6"><path
         d="M85,9c3.3,0,6,2.7,6,6v70c0,3.3-2.7,6-6,6H15c-3.3,0-6-2.7-6-6V15c0-3.3,2.7-6,6-6H85 M85,5H15C9.5,5,5,9.5,5,15v70    c0,5.5,4.5,10,10,10h70c5.5,0,10-4.5,10-10V15C95,9.5,90.5,5,85,5L85,5z"
         id="path4" /></g></g><g
     class="st0"
     id="g12"><circle
       class="st1"
       cx="50"
       cy="50"
       r="9.1"
       id="circle10" /></g><g
     class="st0"
     id="g18"><circle
       class="st1"
       cx="26.3"
       cy="73.7"
       r="9.1"
       id="circle14" /><circle
       class="st1"
       cx="73.7"
       cy="26.3"
       r="9.1"
       id="circle16" /></g><g
     class="st0"
     id="g26"><circle
       class="st1"
       cx="26.3"
       cy="73.7"
       r="9.1"
       id="circle20" /><circle
       class="st1"
       cx="73.7"
       cy="26.3"
       r="9.1"
       id="circle22" /><circle
       class="st1"
       cx="50"
       cy="50"
       r="9.1"
       id="circle24" /></g><g
     class="st0"
     id="g36"><circle
       class="st1"
       cx="26.3"
       cy="26.3"
       r="9.1"
       id="circle28" /><circle
       class="st1"
       cx="26.3"
       cy="73.7"
       r="9.1"
       id="circle30" /><circle
       class="st1"
       cx="73.7"
       cy="26.3"
       r="9.1"
       id="circle32" /><circle
       class="st1"
       cx="73.7"
       cy="73.7"
       r="9.1"
       id="circle34" /></g><g
     class="st0"
     id="g48"><circle
       class="st1"
       cx="26.3"
       cy="26.3"
       r="9.1"
       id="circle38" /><circle
       class="st1"
       cx="26.3"
       cy="73.7"
       r="9.1"
       id="circle40" /><circle
       class="st1"
       cx="73.7"
       cy="26.3"
       r="9.1"
       id="circle42" /><circle
       class="st1"
       cx="50"
       cy="50"
       r="9.1"
       id="circle44" /><circle
       class="st1"
       cx="73.7"
       cy="73.7"
       r="9.1"
       id="circle46" /></g><g
     class="st0"
     id="g70"><circle
       class="st1"
       cx="26.3"
       cy="26.3"
       r="9.1"
       id="circle50" /><circle
       class="st1"
       cx="26.3"
       cy="50"
       r="9.1"
       id="circle52" /><circle
       class="st1"
       cx="26.3"
       cy="73.7"
       r="9.1"
       id="circle54" /><circle
       class="st1"
       cx="73.7"
       cy="26.3"
       r="9.1"
       id="circle56" /><circle
       class="st1"
       cx="73.7"
       cy="50"
       r="9.1"
       id="circle58" /><circle
       class="st1"
       cx="73.7"
       cy="73.7"
       r="9.1"
       id="circle60" /><circle
       class="st1"
       cx="26.3"
       cy="26.3"
       r="9.1"
       id="circle62" /><circle
       class="st1"
       cx="26.3"
       cy="73.7"
       r="9.1"
       id="circle64" /><circle
       class="st1"
       cx="73.7"
       cy="26.3"
       r="9.1"
       id="circle66" /><circle
       class="st1"
       cx="73.7"
       cy="73.7"
       r="9.1"
       id="circle68" /></g><g
     class="st0"
     id="g76"><g
       class="st1"
       id="g74"><path
         d="M85,5H15C9.5,5,5,9.5,5,15v70c0,5.5,4.5,10,10,10h70c5.5,0,10-4.5,10-10V15C95,9.5,90.5,5,85,5z M50,59.1    c-5,0-9.1-4.1-9.1-9.1c0-5.1,4.1-9.1,9.1-9.1s9.1,4.1,9.1,9.1C59.1,55,55,59.1,50,59.1z"
         id="path72" /></g></g><g
     class="st0"
     id="g88"><g
       class="st1"
       id="g86"><path
         d="M85,5H15C9.5,5,5,9.5,5,15v70c0,5.5,4.5,10,10,10h70c5.5,0,10-4.5,10-10V15C95,9.5,90.5,5,85,5z M26.3,82.9    c-5.1,0-9.1-4.1-9.1-9.1c0-5,4.1-9.1,9.1-9.1c5,0,9.1,4.1,9.1,9.1C35.4,78.8,31.3,82.9,26.3,82.9z M50,59.1c-5,0-9.1-4.1-9.1-9.1    c0-5.1,4.1-9.1,9.1-9.1s9.1,4.1,9.1,9.1C59.1,55,55,59.1,50,59.1z M73.7,35.4c-5,0-9.1-4.1-9.1-9.1c0-5,4.1-9.1,9.1-9.1    c5.1,0,9.1,4.1,9.1,9.1C82.9,31.3,78.8,35.4,73.7,35.4z"
         id="path84" /></g></g><g
     class="st0"
     id="g94"><g
       class="st1"
       id="g92"><path
         d="M85,5H15C9.5,5,5,9.5,5,15v70c0,5.5,4.5,10,10,10h70c5.5,0,10-4.5,10-10V15C95,9.5,90.5,5,85,5z M26.3,82.9    c-5.1,0-9.1-4.1-9.1-9.1c0-5,4.1-9.1,9.1-9.1c5,0,9.1,4.1,9.1,9.1C35.4,78.8,31.3,82.9,26.3,82.9z M26.3,35.4    c-5.1,0-9.1-4.1-9.1-9.1c0-5,4.1-9.1,9.1-9.1c5,0,9.1,4.1,9.1,9.1C35.4,31.3,31.3,35.4,26.3,35.4z M73.7,82.9    c-5,0-9.1-4.1-9.1-9.1c0-5,4.1-9.1,9.1-9.1c5.1,0,9.1,4.1,9.1,9.1C82.9,78.8,78.8,82.9,73.7,82.9z M73.7,35.4    c-5,0-9.1-4.1-9.1-9.1c0-5,4.1-9.1,9.1-9.1c5.1,0,9.1,4.1,9.1,9.1C82.9,31.3,78.8,35.4,73.7,35.4z"
         id="path90" /></g></g><g
     class="st0"
     id="g100"><g
       class="st1"
       id="g98"><path
         d="M85,5H15C9.5,5,5,9.5,5,15v70c0,5.5,4.5,10,10,10h70c5.5,0,10-4.5,10-10V15C95,9.5,90.5,5,85,5z M26.3,82.9    c-5.1,0-9.1-4.1-9.1-9.1c0-5,4.1-9.1,9.1-9.1c5,0,9.1,4.1,9.1,9.1C35.4,78.8,31.3,82.9,26.3,82.9z M26.3,35.4    c-5.1,0-9.1-4.1-9.1-9.1c0-5,4.1-9.1,9.1-9.1c5,0,9.1,4.1,9.1,9.1C35.4,31.3,31.3,35.4,26.3,35.4z M50,59.1c-5,0-9.1-4.1-9.1-9.1    c0-5.1,4.1-9.1,9.1-9.1s9.1,4.1,9.1,9.1C59.1,55,55,59.1,50,59.1z M73.7,82.9c-5,0-9.1-4.1-9.1-9.1c0-5,4.1-9.1,9.1-9.1    c5.1,0,9.1,4.1,9.1,9.1C82.9,78.8,78.8,82.9,73.7,82.9z M73.7,35.4c-5,0-9.1-4.1-9.1-9.1c0-5,4.1-9.1,9.1-9.1    c5.1,0,9.1,4.1,9.1,9.1C82.9,31.3,78.8,35.4,73.7,35.4z"
         id="path96" /></g></g><g
     class="st0"
     id="g106"><g
       class="st1"
       id="g104"><path
         d="M85,5H15C9.5,5,5,9.5,5,15v70c0,5.5,4.5,10,10,10h70c5.5,0,10-4.5,10-10V15C95,9.5,90.5,5,85,5z M26.3,82.9    c-5.1,0-9.1-4.1-9.1-9.1c0-5,4.1-9.1,9.1-9.1c5,0,9.1,4.1,9.1,9.1C35.4,78.8,31.3,82.9,26.3,82.9z M26.3,59.1    c-5.1,0-9.1-4.1-9.1-9.1c0-5.1,4.1-9.1,9.1-9.1c5,0,9.1,4.1,9.1,9.1C35.4,55,31.3,59.1,26.3,59.1z M26.3,35.4    c-5.1,0-9.1-4.1-9.1-9.1c0-5,4.1-9.1,9.1-9.1c5,0,9.1,4.1,9.1,9.1C35.4,31.3,31.3,35.4,26.3,35.4z M73.7,82.9    c-5,0-9.1-4.1-9.1-9.1c0-5,4.1-9.1,9.1-9.1c5.1,0,9.1,4.1,9.1,9.1C82.9,78.8,78.8,82.9,73.7,82.9z M73.7,59.1    c-5,0-9.1-4.1-9.1-9.1c0-5.1,4.1-9.1,9.1-9.1c5.1,0,9.1,4.1,9.1,9.1C82.9,55,78.8,59.1,73.7,59.1z M73.7,35.4    c-5,0-9.1-4.1-9.1-9.1c0-5,4.1-9.1,9.1-9.1c5.1,0,9.1,4.1,9.1,9.1C82.9,31.3,78.8,35.4,73.7,35.4z"
         id="path102" /></g></g><rect
     id="rect132"
     width="52.966103"
     height="25.847458"
     x="11.864407"
     y="38.983047" /><path
     style="fill:none;stroke:#000000;stroke-width:1px;stroke-linecap:butt;stroke-linejoin:miter;stroke-opacity:1"
     d="m 55.508475,47.457627 c 0,-1.553672 0,-3.107345 0,-4.661017 0,-0.616893 -0.08625,-2.024872 0,-2.542373 0.07343,-0.440572 0.350298,-0.830614 0.423728,-1.271186 0.06966,-0.417964 0,-0.847458 0,-1.271187 0,-0.847457 0,-1.694915 0,-2.542372 0,-4.519774 0,-9.039548 0,-13.559323 1.061827,1.456005 2.709861,2.394518 3.81356,3.81356 1.011259,1.30019 1.531113,2.937097 2.542373,4.237288 0.490532,0.630685 1.168776,1.093613 1.694915,1.694915 0.465045,0.531481 0.837612,1.137463 1.271186,1.694915 0.555246,0.713888 1.13967,1.404757 1.694916,2.118645 1.053919,1.355038 1.80317,2.505262 2.966101,3.813559 0.928936,1.045053 2.070974,1.891949 2.966102,2.966102 0.326019,0.391223 0.529326,0.873522 0.847458,1.271186 0.249562,0.311953 0.625857,0.515057 0.847457,0.847458 0.07835,0.117521 -0.09987,0.323855 0,0.423728 0.223325,0.223325 0.624133,0.200405 0.847458,0.423729 0.09987,0.09987 -0.04466,0.289734 0,0.423729 0.09987,0.299622 0.323855,0.547836 0.423729,0.847458 0.04466,0.133994 -0.06317,0.297397 0,0.423728 0.08933,0.17866 0.334399,0.24507 0.423728,0.423729 0.292237,0.584474 -0.513158,0.379014 0.423729,0.847458 0.126332,0.06317 0.323855,-0.09987 0.423729,0 0.09987,0.09987 -0.06317,0.297397 0,0.423729 0.08933,0.17866 0.334399,0.245069 0.423729,0.423729 0.126331,0.252663 -0.126332,0.594794 0,0.847457 0.254237,0.508475 1.016949,0.762712 1.271186,1.271187 0.292237,0.584473 -0.513159,0.379013 0.423729,0.847457 0.126332,0.06317 0.297397,-0.06317 0.423729,0 0.17866,0.08933 0.282486,0.282486 0.423729,0.423729 0.141243,0.141243 0.334399,0.245069 0.423729,0.423729 0.06316,0.126331 0,0.282486 0,0.423729 -0.282486,0.9887 -0.31842,2.084372 -0.847458,2.966101 -0.363345,0.605574 -1.158717,0.811588 -1.694915,1.271187 -0.909959,0.779964 -1.694916,1.694915 -2.542373,2.542373 -1.129944,1.129943 -2.259887,2.259887 -3.389831,3.38983 -0.564971,0.564972 -1.174939,1.088277 -1.694915,1.694915 -0.662842,0.773316 -0.974715,1.822173 -1.694915,2.542373 -0.223325,0.223325 -0.594795,0.234232 -0.847458,0.423729 -0.479394,0.359546 -0.772586,0.938786 -1.271186,1.271187 -0.262786,0.17519 -0.584672,0.248538 -0.847458,0.423728 -0.1662,0.110801 -0.263931,0.303881 -0.423729,0.423729 -0.407407,0.305555 -0.863779,0.541903 -1.271186,0.847458 -0.319596,0.239697 -0.490138,0.668798 -0.847458,0.847457 -0.126331,0.06317 -0.323855,-0.09987 -0.423729,0 -0.223324,0.223325 -0.248538,0.584673 -0.423728,0.847458 -0.08203,0.123051 -0.832588,0.787976 -0.847458,0.847458 -0.102769,0.411077 0.102769,0.860109 0,1.271186 C 61.392232,74.770055 61.127749,74.8338 61.016949,75 c -0.17519,0.262785 -0.248538,0.584672 -0.423729,0.847458 -0.1108,0.1662 -0.334399,0.245069 -0.423728,0.423728 -0.126332,0.252663 0.08933,0.579468 0,0.847458 -1.023082,3.069244 0.122162,-0.668054 -0.847458,1.271187 -0.292237,0.584473 0.513159,0.379013 -0.423729,0.847457 -0.126331,0.06317 -0.323855,-0.09987 -0.423729,0 -0.09987,0.09987 0.04467,0.289734 0,0.423729 -0.09987,0.299621 -0.248538,0.584672 -0.423729,0.847458 -0.523602,0.785404 -0.423728,0.03886 -0.423728,0.847457 -0.585927,-1.512032 0.219722,-3.12296 0,-4.661017 C 57.544761,76.118409 57.267701,75.578798 57.20339,75 c -0.140379,-1.263412 0.157671,-2.552189 0,-3.813559 -0.07223,-0.577863 -0.341371,-1.118409 -0.423729,-1.694916 -0.05992,-0.41947 0,-0.847457 0,-1.271186 0,-0.988701 0,-1.977401 0,-2.966102 0,-0.282486 0.0554,-0.570457 0,-0.847457 -0.0876,-0.437976 -0.3503,-0.830615 -0.423729,-1.271187 -0.116101,-0.696606 0,-1.412429 0,-2.118644 0,-0.282486 0.06851,-0.573406 0,-0.847457 -0.0766,-0.306399 -0.347129,-0.541059 -0.423729,-0.847458 -0.171282,-0.685129 0.116101,-1.422038 0,-2.118644 -0.07343,-0.440572 -0.3503,-0.830614 -0.423728,-1.271187 -0.116101,-0.696605 0,-1.412429 0,-2.118644 0,-1.694915 0,-3.38983 0,-6.355932 z"
     id="path3829"
     inkscape:connector-curvature="0" /><path
     style="stroke-width:0.42372882"
     d="m 58.148431,76.064623 c -0.243956,-0.905979 -0.423118,-2.288394 -0.398139,-3.072034 0.02498,-0.783636 -0.09631,-2.902547 -0.26953,-4.708691 L 57.165815,65 h 3.87472 3.874719 V 51.864407 38.728814 h -4.237288 -4.237288 l 0.0098,-7.733051 0.0098,-7.733051 1.791025,1.968254 c 0.985064,1.082539 2.36306,2.837683 3.062212,3.90032 1.466807,2.229387 7.086498,9.238432 9.924997,12.378749 2.715687,3.004446 3.315347,3.796693 4.066166,5.372047 1.254909,2.633029 1.933909,3.681191 3.213783,4.961065 0.991084,0.991083 1.216889,1.505834 0.983834,2.242769 -0.166364,0.526051 -2.420117,3.099378 -5.008342,5.718504 -2.588224,2.619127 -5.468573,5.584237 -6.400777,6.589135 -0.932203,1.004898 -2.75757,2.625021 -4.056371,3.600276 -1.298802,0.975254 -2.568706,2.205059 -2.82201,2.732898 -0.253304,0.527843 -0.87609,1.865432 -1.38397,2.972424 -0.507879,1.106991 -0.994397,2.012711 -1.08115,2.012711 -0.08675,0 -0.357333,-0.741258 -0.601288,-1.647241 z"
     id="path3831"
     inkscape:connector-curvature="0" /><path
     style="stroke-width:0.42372882"
     d="M 56.864407,72.838983 56.308568,64.576271 H 34.128861 11.949153 V 51.864407 39.152542 H 33.771186 55.59322 v -9.148055 -9.148056 l 2.163678,2.118709 c 1.190026,1.165289 2.763119,3.065785 3.495763,4.223322 1.743907,2.755268 6.651983,8.961981 9.62017,12.165584 2.653677,2.864148 5.059372,5.89466 5.059372,6.373411 0,0.529832 3.051733,5.003105 4.079441,5.979703 1.734924,1.648643 0.810229,3.314757 -4.937297,8.895984 -2.774995,2.694708 -5.157131,5.251343 -5.293631,5.681415 -0.1365,0.430072 -1.716093,1.87961 -3.510212,3.221195 -3.173,2.372665 -4.506504,3.725839 -4.527085,4.59386 -0.0055,0.233356 -0.285868,0.900979 -0.62297,1.483606 -0.337102,0.582627 -0.670347,1.40375 -0.740546,1.824721 -0.131509,0.788618 -2.259695,3.68372 -2.707916,3.683741 -0.138457,9e-6 -0.501868,-3.718207 -0.80758,-8.262699 z m 2.534419,4.956339 c 0.294204,-0.62853 0.797708,-1.648894 1.118894,-2.267479 0.321187,-0.618585 0.590318,-1.381296 0.598072,-1.694915 0.02225,-0.899932 1.220551,-2.09864 4.730983,-4.732585 1.794119,-1.346161 3.373712,-2.79944 3.510212,-3.229512 0.1365,-0.430073 2.519899,-2.987937 5.296441,-5.684142 4.065911,-3.948271 5.103903,-5.198798 5.334208,-6.426433 0.244826,-1.305051 0.162233,-1.556591 -0.574382,-1.749219 -0.473178,-0.12374 -0.976343,-0.541039 -1.11814,-0.927331 -0.36744,-1.001014 -1.375847,-2.677545 -1.794928,-2.984168 -0.195864,-0.143305 -0.814809,-1.172249 -1.375432,-2.286543 -0.560623,-1.114293 -2.372063,-3.507012 -4.025423,-5.317153 -3.679767,-4.028704 -8.479967,-10.04497 -10.267047,-12.868071 -1.421928,-2.24626 -3.482822,-4.576924 -4.047153,-4.576924 -0.189449,0 -0.33105,0.619704 -0.314669,1.377119 0.0225,1.040651 0.105898,1.183413 0.34133,0.584306 0.351382,-0.894176 1.069903,-0.107608 6.723818,7.360609 1.676123,2.213983 4.765454,6.027543 6.865174,8.474577 2.099724,2.447034 4.413402,5.561075 5.141513,6.920091 0.72811,1.359017 1.876415,3.10029 2.551788,3.869498 0.675373,0.769207 1.227949,1.699309 1.227949,2.066892 0,0.797016 -10.004153,11.324942 -14.699987,15.469612 -2.534433,2.236962 -3.609721,3.542835 -4.56775,5.547263 -1.384322,2.896334 -1.81075,2.713254 -1.91578,-0.822509 -0.04814,-1.620551 -0.11561,-1.759763 -0.449479,-0.927381 -0.242729,0.605161 -0.239093,1.665428 0.0095,2.774784 0.221292,0.987461 0.291839,2.218 0.156763,2.734525 -0.349466,1.336364 0.845593,0.806068 1.543504,-0.684911 z m -1.730334,-9.087695 c -0.03466,-2.117046 -0.106619,-2.383398 -0.358645,-1.32775 -0.293855,1.230856 -0.129364,3.976055 0.238246,3.976055 0.09007,0 0.144254,-1.191737 0.120399,-2.648305 z m 7.246762,-16.84322 V 38.728814 l -4.34322,0.08868 -4.34322,0.08868 4.131355,0.138526 4.131356,0.138527 V 51.86325 64.543271 l -3.707627,0.141229 -3.707627,0.141229 3.919492,0.08713 L 64.915254,65 Z"
     id="path3833"
     inkscape:connector-curvature="0" /><path
     style="stroke-width:0.42372882"
     d="m 56.853653,72.838983 -0.54453,-8.262712 H 34.129137 11.949153 V 51.864407 39.152542 H 33.771186 55.59322 v -9.198393 -9.198393 l 1.957331,1.889071 c 1.076534,1.038989 2.62253,2.913131 3.435546,4.164761 1.706933,2.627793 9.360984,12.257422 10.469026,13.171173 0.829394,0.683963 4.47708,5.32734 4.47708,5.699165 0,0.444754 2.868373,4.701174 3.945721,5.85511 1.823237,1.952853 1.072063,3.372474 -4.803577,9.078108 -2.774995,2.694708 -5.154559,5.243246 -5.287919,5.66342 -0.133356,0.420169 -1.331597,1.581114 -2.662754,2.579868 -3.547962,2.662009 -5.174521,4.26514 -5.174521,5.099987 0,0.406632 -0.176767,0.848577 -0.392814,0.982102 -0.216051,0.133526 -0.627678,0.955161 -0.914733,1.825856 -0.501742,1.521903 -2.436504,4.33728 -2.980648,4.337305 -0.144526,9e-6 -0.507814,-3.718207 -0.807305,-8.262699 z m 3.100178,3.707627 c 0.634478,-1.340042 1.158648,-2.627118 1.164826,-2.860169 0.01877,-0.708458 1.321271,-2.006437 4.43219,-4.416831 1.631356,-1.264004 3.13731,-2.59875 3.346564,-2.966102 0.209254,-0.367351 2.732021,-3.056648 5.606148,-5.97621 3.855509,-3.916454 5.298581,-5.672745 5.503687,-6.698264 0.234,-1.170013 0.140928,-1.425812 -0.588165,-1.616473 -0.476382,-0.124578 -0.98217,-0.542563 -1.123967,-0.928855 -0.36744,-1.001014 -1.375847,-2.677545 -1.794928,-2.984168 -0.195864,-0.143305 -0.794788,-1.134506 -1.330936,-2.202669 -0.536153,-1.068162 -2.347593,-3.462494 -4.025424,-5.320737 -3.707703,-4.106376 -8.451017,-10.036936 -10.486343,-13.111057 -1.663542,-2.51259 -3.329411,-4.414228 -3.866936,-4.414228 -0.653259,0 -0.353674,1.064958 0.438809,1.559871 0.433771,0.270895 2.422152,2.652568 4.418627,5.292604 1.99647,2.640037 4.995025,6.420831 6.663453,8.401763 5.259526,6.244658 6.38992,7.734894 7.441945,9.810971 0.563589,1.112183 1.597094,2.674066 2.296678,3.470851 0.699585,0.796784 1.271975,1.743757 1.271975,2.104383 0,0.802002 -10.449581,11.827905 -14.842314,15.660909 -2.425042,2.116043 -3.488084,3.407479 -4.434093,5.386754 -1.353496,2.831844 -1.793508,2.686988 -1.910034,-0.628784 -0.0448,-1.27475 -0.140699,-1.48725 -0.38686,-0.857211 -0.180013,0.460733 -0.160725,1.579063 0.04287,2.485178 0.203589,0.90611 0.256084,2.006898 0.116656,2.446195 -0.162995,0.513563 -0.04902,0.79872 0.319238,0.79872 0.315008,0 1.091856,-1.096398 1.726335,-2.436441 z m -2.361636,-8.46875 c -0.09739,-0.644093 -0.179687,-0.217691 -0.182869,0.947564 -0.0034,1.165254 0.07651,1.692241 0.177085,1.17108 0.100576,-0.521161 0.103182,-1.474551 0.0058,-2.118644 z M 64.915254,51.864407 V 38.728814 l -4.34322,0.08868 -4.34322,0.08868 4.131355,0.138526 4.131356,0.138527 V 51.862614 64.542 L 60.995763,64.68475 57.5,64.827504 61.207627,64.91375 64.915254,65 Z"
     id="path3835"
     inkscape:connector-curvature="0" /><path
     style="stroke-width:0.42372882"
     d="M 56.842877,72.838983 56.28861,64.576271 H 34.118882 11.949153 V 51.864407 39.152542 H 33.771186 55.59322 v -9.198393 -9.198393 l 1.957331,1.889071 c 1.076534,1.038989 2.601085,2.87961 3.387898,4.090269 1.674322,2.576268 9.434517,12.347549 10.519492,13.245665 1.138635,0.942537 4.167275,5.04268 5.648106,7.646358 0.729008,1.281779 1.892894,2.946326 2.586415,3.698993 2.003661,2.174544 1.383881,3.478553 -4.232093,8.904286 -2.559551,2.472846 -4.975344,5.04053 -5.368424,5.705966 -0.393085,0.665433 -2.30003,2.451848 -4.237661,3.969814 -1.937627,1.517962 -3.631928,3.084843 -3.765106,3.481962 -0.133178,0.397114 -0.600521,1.497275 -1.038542,2.444792 -0.438017,0.947521 -0.796399,1.863432 -0.796399,2.035352 0,0.417407 -2.258953,3.233381 -2.593805,3.233398 -0.144809,9e-6 -0.512712,-3.718207 -0.817555,-8.262699 z m 3.130852,3.362119 c 1.983135,-4.146979 2.108788,-4.318996 4.407945,-6.034399 2.443068,-1.822771 14.516173,-14.156027 15.296529,-15.626135 0.704051,-1.326352 0.607293,-2.158506 -0.28386,-2.441347 -0.42633,-0.135312 -1.202419,-1.101551 -1.72464,-2.147198 -0.522224,-1.045646 -1.088491,-1.901176 -1.258377,-1.901176 -0.169881,0 -0.537894,-0.619703 -0.817805,-1.377118 C 75.313614,45.916314 73.940797,43.961864 72.542818,42.330508 67.415441,36.34718 61.578025,29.024572 60.125475,26.753867 c -1.427267,-2.231174 -3.188356,-3.916973 -3.630267,-3.475061 -0.114657,0.114656 0.373411,0.825313 1.084597,1.579236 0.711182,0.753925 2.982504,3.56021 5.047377,6.236189 2.064869,2.67598 5.440407,6.870895 7.501195,9.322034 2.060788,2.451139 4.49528,5.728544 5.409979,7.283123 0.914703,1.554579 2.140225,3.393545 2.723386,4.086592 0.583161,0.693046 1.060292,1.548431 1.060292,1.900855 0,0.813623 -10.482352,11.945068 -14.527937,15.427542 -2.181805,1.878119 -3.502237,3.445475 -4.612898,5.475538 l -1.556089,2.844212 -0.272974,-1.661979 c -0.491115,-2.990093 -0.553712,-2.972487 -0.490661,0.137979 0.03703,1.826343 0.234,3.017335 0.485983,2.93839 0.23305,-0.07301 0.964873,-1.264348 1.626271,-2.647415 z m -2.393504,-7.705339 c -0.106581,-0.407839 -0.193784,-0.07415 -0.193784,0.741525 0,0.815678 0.0872,1.149365 0.193784,0.741526 0.106576,-0.407839 0.106576,-1.075212 0,-1.483051 z M 64.915254,51.864407 V 38.728814 l -3.495762,0.08527 -3.495763,0.08527 3.283898,0.144416 3.283898,0.144415 V 51.862006 64.53583 l -2.648305,0.150436 -2.648305,0.150441 2.86017,0.08164 L 64.915254,65 Z"
     id="path3837"
     inkscape:connector-curvature="0" /><path
     style="stroke-width:0.42372882"
     d="M 56.842877,72.838983 56.28861,64.576271 H 34.118882 11.949153 V 51.864407 39.152542 H 33.771186 55.59322 v -9.198393 -9.198393 l 1.947017,1.889071 c 1.07086,1.038989 2.730856,3.032781 3.688882,4.430647 2.188707,3.19358 7.828868,10.27483 10.651017,13.372408 2.000733,2.195998 2.964224,3.51644 5.702267,7.81483 0.593809,0.932203 1.596415,2.306349 2.228016,3.053656 1.860064,2.200815 1.201301,3.550729 -4.35005,8.91403 -2.559551,2.472846 -4.975344,5.04053 -5.368424,5.705966 -0.393085,0.665433 -2.30003,2.451848 -4.237661,3.969814 -1.937627,1.517962 -3.631928,3.084843 -3.765106,3.481962 -0.133178,0.397114 -0.600521,1.497275 -1.038542,2.444792 -0.438017,0.947521 -0.796399,1.863432 -0.796399,2.035352 0,0.417407 -2.258953,3.233381 -2.593805,3.233398 -0.144809,9e-6 -0.512712,-3.718207 -0.817555,-8.262699 z m 3.165081,3.34617 c 0.622423,-1.314581 1.036525,-2.485301 0.920228,-2.601598 -0.116296,-0.116297 -0.63883,0.668225 -1.161182,1.743386 -1.009042,2.076911 -1.612915,1.952784 -1.624923,-0.334005 -0.0034,-0.679728 -0.117551,-1.124809 -0.253301,-0.989063 -0.361911,0.361915 0.285716,5.005148 0.665377,4.770504 0.177165,-0.109491 0.831373,-1.274644 1.453801,-2.589224 z M 73.496242,61.334222 c 6.404394,-6.604117 7.721771,-8.65619 5.923466,-9.22695 -0.412377,-0.130884 -1.117513,-0.92081 -1.566966,-1.755389 -0.44945,-0.83458 -1.160776,-1.913586 -1.580725,-2.39779 -0.419949,-0.484205 -0.763542,-1.094676 -0.763542,-1.356602 0,-0.465781 -0.84775,-1.547281 -9.558246,-12.193756 -2.343903,-2.864851 -4.986962,-6.309282 -5.873471,-7.654291 -1.556872,-2.362091 -3.148762,-3.90343 -3.582983,-3.469208 -0.115444,0.115443 0.462056,0.921439 1.283331,1.791101 0.821271,0.869663 3.097017,3.677893 5.057212,6.240511 1.960195,2.562618 5.161678,6.545268 7.114411,8.850333 1.952733,2.305065 4.496029,5.738039 5.651771,7.62883 1.155742,1.890792 2.46589,3.831448 2.911441,4.31257 0.445551,0.481122 0.810093,1.183556 0.810093,1.560964 0,0.747561 -7.195076,8.5955 -13.058513,14.243413 -3.031712,2.920271 -3.230555,3.181127 -1.1305,1.48305 1.401551,-1.133275 5.165,-4.75883 8.363221,-8.056786 z m -15.927479,7.373405 c -0.117547,-0.291313 -0.213725,-0.05297 -0.213725,0.529661 0,0.582627 0.09618,0.820975 0.213725,0.529661 0.117546,-0.291313 0.117546,-0.768008 0,-1.059322 z m 7.346491,-16.84322 V 38.728814 l -2.648305,0.08012 -2.648305,0.08012 2.436441,0.152889 2.43644,0.15289 v 12.667502 12.667503 l -2.012711,0.158703 -2.012712,0.158704 2.224576,0.07638 L 64.915254,65 Z"
     id="path3839"
     inkscape:connector-curvature="0" /><path
     style="stroke-width:0.42372882"
     d="M 56.842877,72.838983 56.28861,64.576271 H 34.118882 11.949153 V 51.864407 39.152542 H 33.771186 55.59322 l 0.008,-9.216101 0.008,-9.216102 2.428432,2.57 c 1.335636,1.4135 3.665962,4.27367 5.178496,6.355932 1.512538,2.082263 4.18203,5.469831 5.932204,7.527929 4.112758,4.836346 6.611508,8.085501 8.580923,11.157869 0.871873,1.360159 1.973361,2.95433 2.447746,3.542603 1.366331,1.694336 0.493085,3.369589 -3.962106,7.601009 -2.094864,1.989647 -4.561593,4.570929 -5.481623,5.736183 -0.920025,1.165255 -3.10664,3.28917 -4.85914,4.71981 -3.014567,2.460923 -4.499114,4.485669 -5.416855,7.387957 -0.370827,1.172712 -2.262085,3.782064 -2.741238,3.782064 -0.175415,0 -0.568356,-3.71822 -0.873199,-8.262712 z m 3.131377,3.33936 c 1.397966,-2.850402 1.255742,-3.522368 -0.174784,-0.825796 -1.066131,2.009673 -1.64561,1.883945 -1.657389,-0.359611 -0.0034,-0.679728 -0.121399,-1.120961 -0.261844,-0.980517 -0.336055,0.336051 0.24792,4.546903 0.630577,4.546903 0.162631,0 0.821182,-1.071441 1.46344,-2.380979 z M 72.663411,62.073167 c 7.115042,-7.270641 8.10339,-8.697104 6.776085,-9.779804 C 78.724225,51.709905 77.934123,50.56907 74.532097,45.207531 73.909504,44.226333 72.293966,42.128875 70.942013,40.546514 67.138538,36.09483 61.879085,29.46156 59.925619,26.652542 c -0.97242,-1.398305 -2.154339,-2.782336 -2.626488,-3.075624 -1.218784,-0.757081 -1.067839,-0.342693 0.541081,1.485421 0.769746,0.874612 3.413449,4.164356 5.874894,7.310542 2.461449,3.146187 5.714682,7.178227 7.229407,8.960088 1.514729,1.781863 3.480449,4.451354 4.368275,5.932204 0.887822,1.48085 2.153106,3.387266 2.811737,4.236481 0.658628,0.849215 1.197509,1.829893 1.197509,2.179283 0,0.74313 -6.392555,7.77889 -11.985115,13.191033 -2.147593,2.07831 -3.331546,3.385538 -2.631008,2.904949 0.700538,-0.480588 4.281415,-3.947275 7.9575,-7.703752 z M 64.915254,51.864407 V 38.728814 l -2.012712,0.07403 -2.012711,0.07403 1.800847,0.1622 1.800847,0.162199 V 51.861927 64.52258 l -1.377118,0.170899 c -1.355856,0.168262 -1.352585,0.171949 0.211864,0.238711 L 64.915254,65 Z"
     id="path3841"
     inkscape:connector-curvature="0" /><path
     style="stroke-width:0.42372882"
     d="m 56.928983,74.639831 c -0.27158,-3.554026 -0.492551,-7.272246 -0.491042,-8.262712 l 0.0027,-1.800848 H 34.194915 11.949153 V 51.864407 39.152542 H 33.771186 55.59322 v -9.198393 -9.198393 l 1.947017,1.889071 c 1.07086,1.038989 2.674267,2.949451 3.563132,4.245472 1.820724,2.654742 8.473313,10.955292 11.355957,14.169023 1.045208,1.165254 3.109242,3.930085 4.586746,6.144068 1.477504,2.213983 2.976886,4.421685 3.331962,4.906004 1.098585,1.498452 0.05884,3.255403 -4.824843,8.152951 -2.482136,2.489185 -5.185047,5.288502 -6.006471,6.220706 -0.821419,0.932203 -2.771288,2.802915 -4.333042,4.15714 -2.032572,1.762487 -3.140775,3.120779 -3.899496,4.779508 -0.58297,1.274504 -1.059945,2.419691 -1.059945,2.54486 0,0.39692 -2.205834,3.137136 -2.525351,3.137136 -0.168369,0 -0.528327,-2.907839 -0.799903,-6.461864 z m 3.020517,1.588983 c 1.328254,-2.708259 1.219966,-3.108534 -0.171284,-0.633136 -0.659474,1.173373 -1.058271,1.533102 -1.291813,1.165254 -0.215543,-0.339504 -0.340183,-0.110322 -0.344322,0.633136 -0.0098,1.767072 0.544572,1.40964 1.807419,-1.165254 z m -1.957008,-1.588983 c -0.117547,-0.291314 -0.213725,-0.05297 -0.213725,0.529661 0,0.582627 0.09618,0.820974 0.213725,0.529661 0.117546,-0.291314 0.117546,-0.768009 0,-1.059322 z M 72.495165,62.211156 c 3.540543,-3.652784 6.739331,-7.225393 7.10842,-7.939132 0.628767,-1.215904 0.619987,-1.339369 -0.139305,-1.958595 -0.737454,-0.601415 -1.529928,-1.743072 -4.925106,-7.095204 -0.618699,-0.975316 -2.325509,-3.168113 -3.792911,-4.872882 -3.396242,-3.945615 -8.668441,-10.587898 -10.363937,-13.057207 -1.476415,-2.150245 -3.517919,-4.190387 -3.517919,-3.515576 0,0.245139 0.312818,0.705322 0.695148,1.022628 0.382331,0.317306 2.548259,2.962476 4.813178,5.878155 2.264915,2.915678 5.753877,7.259015 7.753246,9.651858 1.999368,2.392844 4.347525,5.53903 5.218127,6.991526 0.870597,1.452495 2.121788,3.335712 2.780419,4.184927 0.658628,0.849215 1.197509,1.834413 1.197509,2.189328 0,0.68133 -10.673161,12.358543 -13.427131,14.690255 -0.888382,0.75217 -1.215157,1.165928 -0.726166,0.919462 0.488992,-0.246466 3.785886,-3.436758 7.326428,-7.089543 z M 64.915254,51.864407 V 38.728814 l -1.588983,0.06781 c -1.564449,0.06676 -1.56772,0.07045 -0.211864,0.238711 l 1.377118,0.170899 V 51.861781 64.517329 L 63.538136,64.70096 C 62.720699,64.858405 62.750915,64.89282 63.75,64.942295 L 64.915254,65 Z"
     id="path3843"
     inkscape:connector-curvature="0" /><path
     style="stroke-width:0.42372882"
     d="m 56.928983,74.639831 c -0.27158,-3.554026 -0.492551,-7.272246 -0.491042,-8.262712 l 0.0027,-1.800848 H 34.194915 11.949153 V 51.864407 39.152542 H 33.771186 55.59322 v -9.196164 -9.196164 l 1.727055,1.674978 c 0.949882,0.921237 3.622513,4.182482 5.939178,7.24721 2.316666,3.064727 5.534433,7.068965 7.150589,8.898305 1.616161,1.82934 4.243831,5.235924 5.839272,7.570185 1.59544,2.334263 3.325589,4.818668 3.844775,5.520902 0.84161,1.138343 0.888953,1.43625 0.43661,2.747412 -0.304072,0.88137 -1.694775,2.573786 -3.47083,4.223827 -1.629911,1.514261 -4.108403,4.088413 -5.507767,5.72034 -1.39936,1.631924 -3.962877,4.182483 -5.696708,5.667911 -2.541415,2.177309 -3.404517,3.244962 -4.453119,5.508474 -1.316711,2.84225 -3.112932,5.561937 -3.673389,5.561937 -0.168369,0 -0.528327,-2.907839 -0.799903,-6.461864 z m 2.907581,1.788978 c 1.156207,-2.266351 1.05497,-2.678631 -0.163471,-0.665733 -0.673796,1.113127 -1.077288,1.459064 -1.235563,1.059322 -0.129267,-0.32647 -0.250085,-0.05797 -0.268483,0.596678 -0.04261,1.516276 0.576275,1.148746 1.667517,-0.990267 z M 79.546606,54.194915 c 0.56025,-1.293146 0.21086,-2.330508 -0.784928,-2.330508 -0.297479,0 -0.279398,0.177193 0.05188,0.508474 1.232733,1.232734 0.696555,1.957575 -9.207767,12.44767 -1.997169,2.115288 -0.701423,0.875881 2.879433,-2.754236 3.580856,-3.630117 6.758478,-7.172247 7.061382,-7.8714 z M 64.915254,51.864407 V 38.728814 L 63.75,38.786518 c -0.999085,0.04948 -1.029301,0.08389 -0.211864,0.241335 l 0.953389,0.183631 v 12.651324 c 0,11.692573 -0.05619,12.66601 -0.741525,12.845103 -0.558013,0.145826 -0.505581,0.205949 0.211864,0.242936 L 64.915254,65 Z m 12.65492,-1.908134 c -0.481699,-0.816422 -1.076763,-1.608595 -1.322365,-1.760384 -0.498364,-0.308007 -0.222906,0.235517 1.053911,2.079535 1.141288,1.648286 1.310547,1.447065 0.268454,-0.319151 z m -2.249615,-3.554028 c -0.348373,-0.673681 -2.754707,-3.772198 -5.347411,-6.885593 -2.592699,-3.113396 -5.842966,-7.186144 -7.222817,-9.05055 -3.450255,-4.661868 -5.5145,-7.080464 -5.799691,-6.795271 -0.132093,0.132093 0.333631,0.857016 1.034945,1.61094 1.781445,1.915089 14.454453,17.730752 16.235262,20.261288 1.663911,2.364423 2.023301,2.645208 1.099712,0.859186 z"
     id="path3845"
     inkscape:connector-curvature="0" /><path
     style="stroke-width:0.42372882"
     d="M 57.13203,77.817797 C 56.97778,76.011653 56.729818,72.293432 56.581008,69.555085 L 56.310445,64.576271 H 34.129798 11.949153 V 51.864407 39.152542 H 33.771186 55.59322 v -9.196164 -9.196164 l 1.729776,1.674978 c 0.951373,0.921237 3.31608,3.772435 5.254907,6.335994 1.938822,2.56356 5.116991,6.53838 7.062597,8.832934 3.442419,4.059822 5.227695,6.436132 9.350339,12.445851 1.92978,2.813102 1.982275,2.969997 1.509339,4.510954 -0.270771,0.88226 -1.027691,1.979373 -1.691915,2.452342 -0.661064,0.470721 -3.173865,3.0154 -5.584,5.654842 -2.410132,2.639442 -5.804568,6.039624 -7.543191,7.555959 -2.52425,2.201517 -3.402686,3.297563 -4.360076,5.440182 -1.205288,2.697407 -3.018013,5.437445 -3.597246,5.437445 -0.171195,0 -0.437466,-1.477754 -0.59172,-3.283898 z m 2.704534,-1.388988 c 1.14375,-2.241932 1.060144,-2.687144 -0.134145,-0.71433 -0.534161,0.882373 -1.105216,1.470296 -1.269012,1.306496 -0.163797,-0.163797 -0.297814,0.126576 -0.297814,0.645275 0,1.266869 0.673229,0.777102 1.700971,-1.237441 z m 5.07869,-24.564402 V 38.728814 l -0.95339,0.04915 c -0.717445,0.03699 -0.769877,0.09711 -0.211864,0.242934 0.685322,0.179093 0.741525,1.152254 0.741525,12.839265 0,9.719915 -0.122538,12.694927 -0.529661,12.859207 -0.316415,0.127678 -0.231118,0.227191 0.211865,0.247174 0.690987,0.03117 0.741525,-0.861793 0.741525,-13.10214 z m 7.627119,10.381356 c 0.547352,-0.582627 0.899843,-1.059322 0.783318,-1.059322 -0.116526,0 -0.659695,0.476695 -1.207047,1.059322 -0.547352,0.582627 -0.899843,1.059322 -0.783318,1.059322 0.116526,0 0.659695,-0.476695 1.207047,-1.059322 z m 7.122661,-9.002032 c -0.07212,-0.606157 -0.417153,-1.188314 -0.766729,-1.293681 -0.512945,-0.154607 -0.533386,-0.08323 -0.105932,0.369865 0.952199,1.009331 0.567237,1.921926 -2.060958,4.885753 l -2.590623,2.921451 2.827691,-2.890641 c 2.241623,-2.291528 2.800509,-3.119063 2.696551,-3.992747 z m -2.09486,-3.287458 c -0.481699,-0.816422 -1.076763,-1.608595 -1.322365,-1.760384 -0.498364,-0.308007 -0.222906,0.235517 1.053911,2.079535 1.141288,1.648286 1.310547,1.447065 0.268454,-0.319151 z m -2.111755,-3.282544 c -0.671923,-1.272053 -3.712525,-5.159129 -5.883326,-7.521187 -0.963809,-1.048728 -0.237216,0 1.614653,2.330509 1.851873,2.330508 3.587877,4.666313 3.857792,5.190678 0.269915,0.524364 0.586093,0.95339 0.702619,0.95339 0.116525,0 -0.01475,-0.429026 -0.291738,-0.95339 z M 65.521381,34.067797 c -1.318072,-1.631356 -2.499911,-2.966102 -2.626309,-2.966102 -0.126394,0 0.0494,0.333686 0.390644,0.741525 0.34125,0.407839 1.437288,1.742585 2.43564,2.966102 0.998352,1.223517 1.900987,2.224576 2.005856,2.224576 0.104869,0 -0.887754,-1.334745 -2.205831,-2.966101 z m -4.798406,-6.253798 c -1.145691,-1.575182 -2.523742,-3.243614 -3.062331,-3.707627 l -0.979263,-0.84366 0.621174,0.896109 c 1.054386,1.521065 5.137394,6.519145 5.325589,6.519145 0.09785,0 -0.759479,-1.288785 -1.905169,-2.863967 z"
     id="path3847"
     inkscape:connector-curvature="0" /><path
     style="stroke-width:0.42372882"
     d="M 57.256644,79.724576 C 57.239314,78.967161 57.000975,75.29661 56.726983,71.567797 L 56.228814,64.788136 34.088983,64.678424 11.949153,64.568712 V 51.860628 39.152542 H 33.771186 55.59322 v -9.198393 -9.198393 l 1.938288,1.889071 c 1.066056,1.038989 2.63217,2.842461 3.48025,4.007715 2.448784,3.364611 7.634411,9.88447 10.658462,13.400825 1.528411,1.777233 4.254992,5.424192 6.059064,8.104353 3.177979,4.721258 3.265038,4.91754 2.795377,6.302565 -0.266614,0.78625 -1.399572,2.287596 -2.517682,3.336325 -1.118115,1.048729 -3.660216,3.677429 -5.649123,5.841555 -1.988907,2.164127 -4.955509,5.090352 -6.592449,6.502725 -2.385899,2.058585 -3.27075,3.180229 -4.460932,5.65472 -1.564238,3.252187 -2.966784,5.306085 -3.623365,5.306085 -0.216135,0 -0.407148,-0.619703 -0.424466,-1.377119 z m 2.351119,-2.839127 c 0.887991,-1.717186 0.808542,-2.182068 -0.129738,-0.759152 -0.423847,0.642767 -0.899288,1.040012 -1.056529,0.882767 -0.157246,-0.157246 -0.285903,0.03191 -0.285903,0.420313 0,1.109521 0.762899,0.827653 1.47217,-0.543928 z m 5.307491,-25.257914 c 0,-12.004482 -0.05141,-12.898271 -0.741525,-12.892233 -0.543191,0.0048 -0.596551,0.09849 -0.199492,0.350451 0.424962,0.269672 0.516483,3.096655 0.423729,13.08897 -0.06507,7.009755 0.0247,12.656476 0.199492,12.548273 0.174788,-0.108208 0.317796,-6.001164 0.317796,-13.095461 z m 12.288136,5.533482 c 0.790585,-0.815678 1.342089,-1.483051 1.225563,-1.483051 -0.116525,0 -0.858707,0.667373 -1.649292,1.483051 -0.790585,0.815678 -1.342089,1.483051 -1.225564,1.483051 0.116526,0 0.858708,-0.667373 1.649293,-1.483051 z m 2.457864,-3.956477 c -0.07005,-0.584603 -0.380275,-1.146036 -0.689402,-1.247629 -0.465835,-0.153097 -0.466521,-0.03176 -0.0038,0.708848 0.46475,0.744183 0.458784,1.052944 -0.03568,1.846953 -0.548936,0.881466 -0.539029,0.908177 0.13136,0.354066 0.420288,-0.347389 0.671555,-1.046137 0.597738,-1.662238 z m -2.232106,-3.431908 c -0.353902,-0.684374 -0.883165,-1.392042 -1.176135,-1.572595 -0.331335,-0.204195 -0.28086,0.06593 0.133534,0.714656 0.366411,0.573614 0.80669,1.281282 0.978394,1.572595 0.633572,1.074911 0.686275,0.488287 0.06421,-0.714656 z m -1.920673,-2.992971 c -0.24945,-0.466102 -0.548886,-0.847458 -0.665411,-0.847458 -0.116526,0 -0.0078,0.381356 0.241682,0.847458 0.249449,0.466102 0.548885,0.847458 0.665411,0.847458 0.116525,0 0.0078,-0.381356 -0.241682,-0.847458 z M 73.881564,44.34322 c -0.460437,-0.640889 -1.534161,-1.927966 -2.386051,-2.860169 -0.856161,-0.936878 -0.555403,-0.415727 0.672479,1.165254 2.192966,2.823603 3.338461,3.956625 1.713572,1.694915 z m -6.423937,-7.893031 c 0,-0.08799 -0.333686,-0.421677 -0.741525,-0.741526 -0.67206,-0.527064 -0.687047,-0.512077 -0.159983,0.159981 0.553546,0.705825 0.901508,0.930288 0.901508,0.581545 z m -1.271186,-1.681126 c 0,-0.08041 -0.429026,-0.509431 -0.95339,-0.95339 l -0.95339,-0.807198 0.807199,0.953389 c 0.758568,0.895952 1.099581,1.146289 1.099581,0.807199 z m -1.694916,-2.118644 c 0,-0.08041 -0.429025,-0.509431 -0.953389,-0.95339 l -0.95339,-0.807198 0.807199,0.953389 c 0.758568,0.895952 1.09958,1.146289 1.09958,0.807199 z m -3.762733,-4.843585 c -0.221495,-0.413869 -1.203351,-1.605606 -2.181902,-2.648305 -1.915801,-2.041388 -1.528992,-1.30594 0.841491,1.599946 1.576034,1.932 1.984149,2.251195 1.340411,1.048359 z"
     id="path3849"
     inkscape:connector-curvature="0" /><path
     style="stroke-width:0.42372882"
     d="m 57.064597,77.182203 c -0.172428,-2.15572 -0.431016,-5.826271 -0.574644,-8.156779 L 56.228814,64.788136 34.088983,64.678424 11.949153,64.568712 V 51.860628 39.152542 H 33.771186 55.59322 v -9.196164 -9.196164 l 1.736848,1.674978 c 0.955263,0.921237 3.417487,3.867774 5.47161,6.547859 2.054119,2.680085 5.55847,7.063026 7.787449,9.73987 2.228975,2.676844 5.506831,7.022957 7.284123,9.658029 3.164547,4.691866 3.219979,4.819169 2.677805,6.14996 -0.535652,1.314786 -8.335165,9.685391 -13.092716,14.051382 -4.201555,3.855759 -5.217458,5.071708 -6.38853,7.646522 -1.195161,2.627779 -2.735724,4.872881 -3.343716,4.872881 -0.191394,0 -0.489068,-1.763771 -0.661496,-3.919492 z m 2.17606,0.211865 c 0.309597,-0.407839 0.563165,-0.932204 0.563491,-1.165254 3.27e-4,-0.233051 -0.196008,-0.08603 -0.436296,0.326707 -0.240288,0.412742 -0.615844,0.639835 -0.834572,0.504657 -0.218729,-0.135182 -0.397687,0.05148 -0.397687,0.414814 0,0.866851 0.408301,0.836949 1.105064,-0.08092 z m 5.674597,-25.95339 c 0,-11.836795 -0.05105,-12.709561 -0.741525,-12.678412 -0.442983,0.01998 -0.52828,0.119498 -0.211865,0.247175 0.406882,0.16418 0.529661,3.103132 0.529661,12.678412 0,6.855579 0.09534,12.464689 0.211865,12.464689 0.116525,0 0.211864,-5.720339 0.211864,-12.711864 z m 12.288136,5.720339 c 0.547352,-0.582627 0.899843,-1.059322 0.783318,-1.059322 -0.116526,0 -0.659695,0.476695 -1.207047,1.059322 -0.547352,0.582627 -0.899843,1.059322 -0.783318,1.059322 0.116526,0 0.659695,-0.476695 1.207047,-1.059322 z m 2.190021,-4.547267 c -0.314436,-0.314436 -0.36958,-0.148998 -0.185271,0.555809 0.149835,0.572968 0.341907,0.765041 0.447691,0.447691 0.101898,-0.305695 -0.01619,-0.75727 -0.26242,-1.0035 z m -1.720335,-2.338326 c -0.224173,-0.407839 -0.727695,-1.122882 -1.118932,-1.588983 -0.682949,-0.813634 -0.687195,-0.805178 -0.106364,0.211864 1.110093,1.943796 1.228199,2.118644 1.431118,2.118644 0.110971,0 0.01835,-0.333686 -0.205822,-0.741525 z m -2.53575,-4.032486 c -0.418483,-0.415368 -0.467152,-0.366696 -0.237203,0.237201 0.159123,0.41789 0.396055,0.65306 0.526517,0.522599 0.130462,-0.130461 2.71e-4,-0.472371 -0.289314,-0.7598 z m -1.323767,-2.151841 c 0,-0.08041 -0.429025,-0.509431 -0.95339,-0.95339 l -0.953389,-0.807199 0.807199,0.95339 c 0.758568,0.895952 1.09958,1.146289 1.09958,0.807199 z m -1.694915,-2.132434 c 0,-0.08799 -0.333686,-0.421676 -0.741525,-0.741525 -0.67206,-0.527064 -0.687047,-0.512077 -0.159983,0.159981 0.553546,0.705825 0.901508,0.930287 0.901508,0.581544 z m -6.355932,-7.627119 c 0,-0.08799 -0.333687,-0.421676 -0.741526,-0.741525 -0.672059,-0.527064 -0.687046,-0.512077 -0.159983,0.159981 0.553547,0.705825 0.901509,0.930288 0.901509,0.581544 z m -1.271187,-1.694915 c 0,-0.08799 -0.333686,-0.421676 -0.741525,-0.741525 -0.672059,-0.527064 -0.687047,-0.512077 -0.159983,0.159981 0.553547,0.705825 0.901508,0.930287 0.901508,0.581544 z m -4.720262,-6.003222 c -1.402716,-1.953249 -3.04078,-3.61937 -2.272449,-2.311373 0.478635,0.814823 3.311305,4.237288 3.507076,4.237288 0.08165,0 -0.473928,-0.866662 -1.234627,-1.925915 z"
     id="path3851"
     inkscape:connector-curvature="0" /><path
     style="stroke-width:0.42372882"
     d="M 57.254157,80.148305 C 57.23547,79.623941 56.997123,75.95339 56.724496,71.991525 L 56.228814,64.788136 34.088983,64.678424 11.949153,64.568712 V 51.860628 39.152542 H 33.771186 55.59322 v -9.196164 -9.196164 l 1.728505,1.674978 c 0.950673,0.921237 3.878495,4.439808 6.506262,7.819045 2.627771,3.379238 6.09253,7.696166 7.699462,9.593173 1.606937,1.897008 4.417555,5.668652 6.245822,8.381432 3.305034,4.90401 3.320831,4.940569 2.751424,6.368171 -0.516309,1.294488 -8.092428,9.323241 -15.244759,16.155551 -1.676593,1.601576 -3.162614,3.523262 -3.931983,5.084745 -1.423288,2.888657 -3.073923,5.264386 -3.657652,5.264386 -0.221191,0 -0.417458,-0.429026 -0.436144,-0.95339 z m 1.9865,-2.754237 c 0.309597,-0.407839 0.563165,-0.932204 0.563491,-1.165254 3.27e-4,-0.233051 -0.196008,-0.08603 -0.436296,0.326707 -0.240288,0.412742 -0.615844,0.639835 -0.834572,0.504657 -0.218729,-0.135182 -0.397687,0.05148 -0.397687,0.414814 0,0.866851 0.408301,0.836949 1.105064,-0.08092 z m 5.567856,-31.965889 c -0.07168,-3.335075 -0.1305,-0.724789 -0.130712,5.800635 -2.16e-4,6.525423 0.05843,9.254121 0.130322,6.063772 0.07189,-3.19035 0.07207,-8.529333 3.9e-4,-11.864407 z m 12.448928,11.626906 c 0.527063,-0.672058 0.512076,-0.687045 -0.159983,-0.159981 -0.705827,0.553546 -0.930289,0.901506 -0.581543,0.901506 0.08799,0 0.421674,-0.333686 0.741526,-0.741525 z m 2.13597,-4.441335 c -0.314436,-0.314436 -0.36958,-0.148998 -0.185271,0.555809 0.149835,0.572968 0.341907,0.765041 0.447691,0.447691 0.101898,-0.305695 -0.01619,-0.75727 -0.26242,-1.0035 z m -6.00358,-8.960172 c 0,-0.08799 -0.333687,-0.421676 -0.741526,-0.741525 -0.672059,-0.527064 -0.687047,-0.512077 -0.159983,0.159981 0.553547,0.705825 0.901509,0.930288 0.901509,0.581544 z M 60.298674,27.394068 c -0.225009,-0.407839 -1.008187,-1.408899 -1.740394,-2.224576 -1.370297,-1.526503 -0.998038,-0.801164 0.822254,1.602144 1.132008,1.494578 1.559025,1.784066 0.91814,0.622432 z"
     id="path3853"
     inkscape:connector-curvature="0" /><path
     style="stroke-width:0.42372882"
     d="m 57.144458,78.45339 c -0.14339,-1.456568 -0.3722,-4.745763 -0.508462,-7.309322 -0.136259,-2.56356 -0.334924,-5.090043 -0.441471,-5.614407 l -0.19372,-0.95339 H 33.974978 11.949153 V 51.864407 39.152542 H 33.771186 55.59322 v -9.196164 -9.196164 l 1.733551,1.674978 c 0.953458,0.921237 3.509369,3.963113 5.67981,6.759723 2.170436,2.79661 5.65583,7.15233 7.745317,9.679377 2.089488,2.527047 5.27189,6.759974 7.072005,9.406505 3.142894,4.620689 3.254495,4.867742 2.808872,6.217999 -0.311309,0.943268 -3.328495,4.26297 -9.166,10.085022 -6.782038,6.764076 -8.989203,9.239818 -10.003953,11.221267 -1.438775,2.809415 -3.182805,5.29661 -3.714008,5.29661 -0.189005,0 -0.460967,-1.191737 -0.604356,-2.648305 z m 1.964724,-0.882767 c 0.119242,-0.310737 -0.05104,-0.564975 -0.378394,-0.564975 -0.327356,0 -0.595195,0.254238 -0.595195,0.564975 0,0.310733 0.17028,0.56497 0.378394,0.56497 0.208119,0 0.475954,-0.254237 0.595195,-0.56497 z m 5.69656,-29.837572 c -0.08153,-1.573093 -0.148234,-0.286017 -0.148234,2.860169 0,3.146187 0.0667,4.433263 0.148234,2.86017 0.08153,-1.573093 0.08153,-4.147246 0,-5.720339 z m -5.424687,-21.61017 c -1.716521,-1.95923 -1.814063,-2.051459 -1.456453,-1.377118 0.419754,0.791517 1.979932,2.542373 2.265495,2.542373 0.116526,0 -0.247542,-0.524365 -0.809042,-1.165255 z"
     id="path3855"
     inkscape:connector-curvature="0" /><path
     style="stroke-width:0.42372882"
     d="M 57.147305,78.665254 C 57.009648,77.325212 56.786208,74.226695 56.65078,71.779661 56.515352,69.332627 56.308695,66.710805 56.191547,65.95339 l -0.213,-1.377119 H 33.96385 11.949153 V 51.864407 39.152542 H 33.771186 55.59322 v -9.196164 -9.196164 l 1.728725,1.674978 c 0.950801,0.921237 3.512542,3.963113 5.692758,6.759723 2.180221,2.79661 5.692865,7.182204 7.805873,9.745763 2.113013,2.563559 5.301077,6.796711 7.084585,9.407003 l 3.242742,4.745986 -0.595136,1.503588 c -0.37503,0.947487 -3.829911,4.766277 -9.341322,10.325253 -6.446771,6.502407 -9.049288,9.426776 -9.899093,11.123306 -1.290606,2.576542 -3.039975,5.055881 -3.567322,5.055881 -0.191085,0 -0.460064,-1.096398 -0.597725,-2.436441 z M 59.128,77.521581 c 0.157483,-0.41039 0.03199,-0.535878 -0.378394,-0.378395 -0.337708,0.129589 -0.614013,0.405895 -0.614013,0.614013 0,0.609161 0.735221,0.434606 0.992407,-0.235618 z m 1.126237,-50.379637 c 0,-0.0804 -0.429025,-0.509431 -0.95339,-0.95339 l -0.953389,-0.807198 0.807199,0.95339 c 0.758568,0.895951 1.09958,1.146288 1.09958,0.807198 z"
     id="path3857"
     inkscape:connector-curvature="0" /><path
     style="stroke-width:0.42372882"
     d="M 57.146606,78.665254 C 57.008559,77.325212 56.786165,74.417373 56.652403,72.20339 56.51864,69.989407 56.309254,67.367585 56.18711,66.377119 L 55.965021,64.576271 H 33.957088 11.949153 V 51.864407 39.152542 H 33.771186 55.59322 v -9.196164 -9.196164 l 1.726327,1.674978 c 0.949474,0.921237 3.371695,3.772435 5.382703,6.335994 2.011008,2.56356 5.673352,7.139831 8.138542,10.169492 2.465191,3.029661 5.792856,7.453276 7.394818,9.830256 l 2.912657,4.321781 -0.595322,1.491513 c -0.365809,0.916504 -3.944123,4.894037 -9.281759,10.317297 -6.000224,6.096483 -9.06533,9.540161 -9.911656,11.135861 -1.431551,2.699097 -3.119649,5.064309 -3.6145,5.064309 -0.191085,0 -0.460377,-1.096398 -0.598424,-2.436441 z m 1.62458,-0.95339 c 0.144034,-0.23305 0.05995,-0.423728 -0.186855,-0.423728 -0.246806,0 -0.448738,0.190678 -0.448738,0.423728 0,0.233051 0.08409,0.423729 0.186856,0.423729 0.102771,0 0.304704,-0.190678 0.448737,-0.423729 z m 1.059322,-51.007438 c 0,-0.08799 -0.333686,-0.421676 -0.741525,-0.741526 -0.672059,-0.527064 -0.687047,-0.512076 -0.159983,0.159981 0.553547,0.705826 0.901508,0.930288 0.901508,0.581545 z"
     id="path3859"
     inkscape:connector-curvature="0" /><path
     style="stroke-width:0.42372882"
     d="M 57.129169,78.685898 C 56.993339,77.3345 56.775157,74.512712 56.644318,72.415254 56.513479,70.317797 56.300907,67.695975 56.171928,66.588983 L 55.937424,64.576271 H 33.943289 11.949153 V 51.864407 39.152542 H 33.771186 55.59322 l 0.0075,-9.216101 0.0075,-9.216102 2.640771,2.789986 c 3.351229,3.540588 16.468343,20.094792 20.09739,25.363524 2.673055,3.880806 2.741551,4.046243 2.280691,5.508475 -0.337221,1.069941 -2.970788,4.062113 -9.073204,10.308668 -4.728936,4.840639 -9.062928,9.574699 -9.631089,10.520131 -2.157589,3.590292 -3.592305,5.632042 -4.06105,5.779292 -0.30906,0.09709 -0.575462,-0.740898 -0.732628,-2.304517 z m 1.642017,-0.974034 c 0.144034,-0.23305 0.05995,-0.423728 -0.186855,-0.423728 -0.246806,0 -0.448738,0.190678 -0.448738,0.423728 0,0.233051 0.08409,0.423729 0.186856,0.423729 0.102771,0 0.304704,-0.190678 0.448737,-0.423729 z"
     id="path3861"
     inkscape:connector-curvature="0" /><path
     style="stroke-width:0.42372882"
     d="m 57.276131,80.783898 c -0.0066,-0.174788 -0.288529,-3.75 -0.626508,-7.944915 -0.337975,-4.194915 -0.618589,-7.770127 -0.623589,-7.944915 -0.005,-0.174788 -9.924339,-0.317797 -22.042983,-0.317797 H 11.949153 V 51.864407 39.152542 H 33.771186 55.59322 l 0.0075,-9.216101 0.0075,-9.216102 2.640771,2.779478 c 3.545822,3.732068 16.342174,19.878444 19.924428,25.140549 2.493242,3.662417 2.839708,4.39929 2.598153,5.525842 -0.189242,0.882588 -1.866415,2.932253 -5.224331,6.384639 -10.313411,10.60356 -13.423517,14.078551 -14.611813,16.326106 -1.649064,3.119047 -3.610043,5.2127 -3.659365,3.906945 z m 1.495055,-3.072034 c 0.144034,-0.23305 0.05995,-0.423728 -0.186855,-0.423728 -0.246806,0 -0.448738,0.190678 -0.448738,0.423728 0,0.233051 0.08409,0.423729 0.186856,0.423729 0.102771,0 0.304704,-0.190678 0.448737,-0.423729 z"
     id="path3863"
     inkscape:connector-curvature="0" /><path
     style="stroke-width:0.42372882"
     d="M 57.276064,80.995763 C 57.269411,80.9375 56.99647,77.391242 56.6695,73.115186 56.342525,68.839131 55.950881,65.21625 55.799174,65.064339 55.647466,64.912428 45.719152,64.728038 33.736249,64.654589 L 11.949153,64.521038 V 51.836791 39.152542 H 33.771186 55.59322 v -9.196164 -9.196164 l 1.734763,1.674978 c 2.468025,2.382974 17.449996,21.209931 20.861695,26.215662 2.462034,3.612358 2.824614,4.379689 2.584996,5.470652 -0.192195,0.875056 -2.818051,3.913006 -8.459331,9.786909 C 63.357941,73.235186 61.862047,74.968877 60.588008,77.5 c -0.91297,1.813788 -2.377372,3.601695 -2.950004,3.601695 -0.192428,0 -0.355301,-0.04767 -0.36194,-0.105932 z m 1.495122,-3.283899 c 0.144034,-0.23305 0.05995,-0.423728 -0.186855,-0.423728 -0.246806,0 -0.448738,0.190678 -0.448738,0.423728 0,0.233051 0.08409,0.423729 0.186856,0.423729 0.102771,0 0.304704,-0.190678 0.448737,-0.423729 z"
     id="path3865"
     inkscape:connector-curvature="0" /><path
     style="stroke-width:0.42372882"
     d="M 57.105758,78.877119 C 56.971911,77.653602 56.672725,74.094831 56.440903,70.968742 56.209076,67.842653 55.933483,65.199017 55.828462,65.094 55.723445,64.988983 45.80764,64.800992 33.793338,64.676237 L 11.949153,64.449411 V 51.800978 39.152542 H 33.771186 55.59322 v -9.196164 -9.196164 l 1.734763,1.674978 c 2.376153,2.294265 17.3265,21.055275 20.864081,26.18208 2.492745,3.612591 2.838461,4.339363 2.593872,5.452957 -0.197021,0.897033 -3.008199,4.145779 -9.313745,10.763453 -5.762183,6.047415 -9.527284,10.362356 -10.401009,11.919924 -1.41347,2.519763 -2.844267,4.348089 -3.40269,4.348089 -0.175657,0 -0.428886,-1.001059 -0.562734,-2.224576 z m 1.665428,-1.165255 c 0.144034,-0.23305 0.05995,-0.423728 -0.186855,-0.423728 -0.246806,0 -0.448738,0.190678 -0.448738,0.423728 0,0.233051 0.08409,0.423729 0.186856,0.423729 0.102771,0 0.304704,-0.190678 0.448737,-0.423729 z"
     id="path3867"
     inkscape:connector-curvature="0" /><path
     style="stroke-width:0.42372882"
     d="m 57.108551,79.300847 c -0.127326,-0.990466 -0.430882,-4.555644 -0.674564,-7.922614 -0.243682,-3.366975 -0.499538,-6.178246 -0.568568,-6.247275 -0.06903,-0.06903 -9.978427,-0.253225 -22.020886,-0.409322 l -21.89538,-0.28381 V 51.795183 39.152542 H 33.771186 55.59322 v -9.290577 -9.290578 l 2.27256,2.404985 c 3.108224,3.289351 16.815762,20.541484 20.307529,25.558806 1.564005,2.247314 2.84364,4.404976 2.84364,4.794805 0,1.345098 -1.003818,2.559109 -9.460568,11.441525 -4.668233,4.903212 -9.205101,10.059 -10.081928,11.457306 -2.008936,3.203724 -3.299919,4.872881 -3.768856,4.872881 -0.201042,0 -0.469716,-0.810381 -0.597046,-1.800848 z"
     id="path3869"
     inkscape:connector-curvature="0" /></svg>