<?xml version="1.0" encoding="UTF-8" standalone="no"?>
<svg
   xmlns:dc="http://purl.org/dc/elements/1.1/"
   xmlns:cc="http://creativecommons.org/ns#"
   xmlns:rdf="http://www.w3.org/1999/02/22-rdf-syntax-ns#"
   xmlns:svg="http://www.w3.org/2000/svg"
   xmlns="http://www.w3.org/2000/svg"
   xmlns:sodipodi="http://sodipodi.sourceforge.net/DTD/sodipodi-0.dtd"
   xmlns:inkscape="http://www.inkscape.org/namespaces/inkscape"
   version="1.1"
   x="0px"
   y="0px"
   viewBox="0 0 100 100"
   style="enable-background:new 0 0 100 100;"
   xml:space="preserve"
   id="svg108"
   sodipodi:docname="blank.svg"
   inkscape:version="0.92.2 5c3e80d, 2017-08-06"><metadata
     id="metadata114"><rdf:RDF><cc:Work
         rdf:about=""><dc:format>image/svg+xml</dc:format><dc:type
           rdf:resource="http://purl.org/dc/dcmitype/StillImage" /><dc:title /></cc:Work></rdf:RDF></metadata><defs
     id="defs112" /><sodipodi:namedview
     pagecolor="#ffffff"
     bordercolor="#666666"
     borderopacity="1"
     objecttolerance="10"
     gridtolerance="10"
     guidetolerance="10"
     inkscape:pageopacity="0"
     inkscape:pageshadow="2"
     inkscape:window-width="1151"
     inkscape:window-height="698"
     id="namedview110"
     showgrid="false"
     inkscape:zoom="2.36"
     inkscape:cx="50"
     inkscape:cy="50"
     inkscape:window-x="49"
     inkscape:window-y="0"
     inkscape:window-maximized="0"
     inkscape:current-layer="svg108" /><style
     type="text/css"
     id="style2">
	.st0{display:none;}
	.st1{display:inline;}
</style><g
     class="st0"
     id="g8"><g
       class="st1"
       id="g6"><path
         d="M85,9c3.3,0,6,2.7,6,6v70c0,3.3-2.7,6-6,6H15c-3.3,0-6-2.7-6-6V15c0-3.3,2.7-6,6-6H85 M85,5H15C9.5,5,5,9.5,5,15v70    c0,5.5,4.5,10,10,10h70c5.5,0,10-4.5,10-10V15C95,9.5,90.5,5,85,5L85,5z"
         id="path4" /></g></g><g
     class="st0"
     id="g12"><circle
       class="st1"
       cx="50"
       cy="50"
       r="9.1"
       id="circle10" /></g><g
     class="st0"
     id="g18"><circle
       class="st1"
       cx="26.3"
       cy="73.7"
       r="9.1"
       id="circle14" /><circle
       class="st1"
       cx="73.7"
       cy="26.3"
       r="9.1"
       id="circle16" /></g><g
     class="st0"
     id="g26"><circle
       class="st1"
       cx="26.3"
       cy="73.7"
       r="9.1"
       id="circle20" /><circle
       class="st1"
       cx="73.7"
       cy="26.3"
       r="9.1"
       id="circle22" /><circle
       class="st1"
       cx="50"
       cy="50"
       r="9.1"
       id="circle24" /></g><g
     class="st0"
     id="g36"><circle
       class="st1"
       cx="26.3"
       cy="26.3"
       r="9.1"
       id="circle28" /><circle
       class="st1"
       cx="26.3"
       cy="73.7"
       r="9.1"
       id="circle30" /><circle
       class="st1"
       cx="73.7"
       cy="26.3"
       r="9.1"
       id="circle32" /><circle
       class="st1"
       cx="73.7"
       cy="73.7"
       r="9.1"
       id="circle34" /></g><g
     class="st0"
     id="g48"><circle
       class="st1"
       cx="26.3"
       cy="26.3"
       r="9.1"
       id="circle38" /><circle
       class="st1"
       cx="26.3"
       cy="73.7"
       r="9.1"
       id="circle40" /><circle
       class="st1"
       cx="73.7"
       cy="26.3"
       r="9.1"
       id="circle42" /><circle
       class="st1"
       cx="50"
       cy="50"
       r="9.1"
       id="circle44" /><circle
       class="st1"
       cx="73.7"
       cy="73.7"
       r="9.1"
       id="circle46" /></g><g
     class="st0"
     id="g70"><circle
       class="st1"
       cx="26.3"
       cy="26.3"
       r="9.1"
       id="circle50" /><circle
       class="st1"
       cx="26.3"
       cy="50"
       r="9.1"
       id="circle52" /><circle
       class="st1"
       cx="26.3"
       cy="73.7"
       r="9.1"
       id="circle54" /><circle
       class="st1"
       cx="73.7"
       cy="26.3"
       r="9.1"
       id="circle56" /><circle
       class="st1"
       cx="73.7"
       cy="50"
       r="9.1"
       id="circle58" /><circle
       class="st1"
       cx="73.7"
       cy="73.7"
       r="9.1"
       id="circle60" /><circle
       class="st1"
       cx="26.3"
       cy="26.3"
       r="9.1"
       id="circle62" /><circle
       class="st1"
       cx="26.3"
       cy="73.7"
       r="9.1"
       id="circle64" /><circle
       class="st1"
       cx="73.7"
       cy="26.3"
       r="9.1"
       id="circle66" /><circle
       class="st1"
       cx="73.7"
       cy="73.7"
       r="9.1"
       id="circle68" /></g><g
     id="g76"><g
       id="g74"><path
         d="M 85,5 H 15 C 9.5,5 5,9.5 5,15 v 70 c 0,5.5 4.5,10 10,10 h 70 c 5.5,0 10,-4.5 10,-10 V 15 C 95,9.5 90.5,5 85,5 Z"
         id="path72"
         inkscape:connector-curvature="0"
         sodipodi:nodetypes="sssssssss" /></g></g><g
     class="st0"
     id="g82"><g
       class="st1"
       id="g80"><path
         d="M85,5H15C9.5,5,5,9.5,5,15v70c0,5.5,4.5,10,10,10h70c5.5,0,10-4.5,10-10V15C95,9.5,90.5,5,85,5z M26.3,82.9    c-5.1,0-9.1-4.1-9.1-9.1c0-5,4.1-9.1,9.1-9.1c5,0,9.1,4.1,9.1,9.1C35.4,78.8,31.3,82.9,26.3,82.9z M73.7,35.4    c-5,0-9.1-4.1-9.1-9.1c0-5,4.1-9.1,9.1-9.1c5.1,0,9.1,4.1,9.1,9.1C82.9,31.3,78.8,35.4,73.7,35.4z"
         id="path78" /></g></g><g
     class="st0"
     id="g88"><g
       class="st1"
       id="g86"><path
         d="M85,5H15C9.5,5,5,9.5,5,15v70c0,5.5,4.5,10,10,10h70c5.5,0,10-4.5,10-10V15C95,9.5,90.5,5,85,5z M26.3,82.9    c-5.1,0-9.1-4.1-9.1-9.1c0-5,4.1-9.1,9.1-9.1c5,0,9.1,4.1,9.1,9.1C35.4,78.8,31.3,82.9,26.3,82.9z M50,59.1c-5,0-9.1-4.1-9.1-9.1    c0-5.1,4.1-9.1,9.1-9.1s9.1,4.1,9.1,9.1C59.1,55,55,59.1,50,59.1z M73.7,35.4c-5,0-9.1-4.1-9.1-9.1c0-5,4.1-9.1,9.1-9.1    c5.1,0,9.1,4.1,9.1,9.1C82.9,31.3,78.8,35.4,73.7,35.4z"
         id="path84" /></g></g><g
     class="st0"
     id="g94"><g
       class="st1"
       id="g92"><path
         d="M85,5H15C9.5,5,5,9.5,5,15v70c0,5.5,4.5,10,10,10h70c5.5,0,10-4.5,10-10V15C95,9.5,90.5,5,85,5z M26.3,82.9    c-5.1,0-9.1-4.1-9.1-9.1c0-5,4.1-9.1,9.1-9.1c5,0,9.1,4.1,9.1,9.1C35.4,78.8,31.3,82.9,26.3,82.9z M26.3,35.4    c-5.1,0-9.1-4.1-9.1-9.1c0-5,4.1-9.1,9.1-9.1c5,0,9.1,4.1,9.1,9.1C35.4,31.3,31.3,35.4,26.3,35.4z M73.7,82.9    c-5,0-9.1-4.1-9.1-9.1c0-5,4.1-9.1,9.1-9.1c5.1,0,9.1,4.1,9.1,9.1C82.9,78.8,78.8,82.9,73.7,82.9z M73.7,35.4    c-5,0-9.1-4.1-9.1-9.1c0-5,4.1-9.1,9.1-9.1c5.1,0,9.1,4.1,9.1,9.1C82.9,31.3,78.8,35.4,73.7,35.4z"
         id="path90" /></g></g><g
     class="st0"
     id="g100"><g
       class="st1"
       id="g98"><path
         d="M85,5H15C9.5,5,5,9.5,5,15v70c0,5.5,4.5,10,10,10h70c5.5,0,10-4.5,10-10V15C95,9.5,90.5,5,85,5z M26.3,82.9    c-5.1,0-9.1-4.1-9.1-9.1c0-5,4.1-9.1,9.1-9.1c5,0,9.1,4.1,9.1,9.1C35.4,78.8,31.3,82.9,26.3,82.9z M26.3,35.4    c-5.1,0-9.1-4.1-9.1-9.1c0-5,4.1-9.1,9.1-9.1c5,0,9.1,4.1,9.1,9.1C35.4,31.3,31.3,35.4,26.3,35.4z M50,59.1c-5,0-9.1-4.1-9.1-9.1    c0-5.1,4.1-9.1,9.1-9.1s9.1,4.1,9.1,9.1C59.1,55,55,59.1,50,59.1z M73.7,82.9c-5,0-9.1-4.1-9.1-9.1c0-5,4.1-9.1,9.1-9.1    c5.1,0,9.1,4.1,9.1,9.1C82.9,78.8,78.8,82.9,73.7,82.9z M73.7,35.4c-5,0-9.1-4.1-9.1-9.1c0-5,4.1-9.1,9.1-9.1    c5.1,0,9.1,4.1,9.1,9.1C82.9,31.3,78.8,35.4,73.7,35.4z"
         id="path96" /></g></g><g
     class="st0"
     id="g106"><g
       class="st1"
       id="g104"><path
         d="M85,5H15C9.5,5,5,9.5,5,15v70c0,5.5,4.5,10,10,10h70c5.5,0,10-4.5,10-10V15C95,9.5,90.5,5,85,5z M26.3,82.9    c-5.1,0-9.1-4.1-9.1-9.1c0-5,4.1-9.1,9.1-9.1c5,0,9.1,4.1,9.1,9.1C35.4,78.8,31.3,82.9,26.3,82.9z M26.3,59.1    c-5.1,0-9.1-4.1-9.1-9.1c0-5.1,4.1-9.1,9.1-9.1c5,0,9.1,4.1,9.1,9.1C35.4,55,31.3,59.1,26.3,59.1z M26.3,35.4    c-5.1,0-9.1-4.1-9.1-9.1c0-5,4.1-9.1,9.1-9.1c5,0,9.1,4.1,9.1,9.1C35.4,31.3,31.3,35.4,26.3,35.4z M73.7,82.9    c-5,0-9.1-4.1-9.1-9.1c0-5,4.1-9.1,9.1-9.1c5.1,0,9.1,4.1,9.1,9.1C82.9,78.8,78.8,82.9,73.7,82.9z M73.7,59.1    c-5,0-9.1-4.1-9.1-9.1c0-5.1,4.1-9.1,9.1-9.1c5.1,0,9.1,4.1,9.1,9.1C82.9,55,78.8,59.1,73.7,59.1z M73.7,35.4    c-5,0-9.1-4.1-9.1-9.1c0-5,4.1-9.1,9.1-9.1c5.1,0,9.1,4.1,9.1,9.1C82.9,31.3,78.8,35.4,73.7,35.4z"
         id="path102" /></g></g><path
     style="fill:#ff2a2a;stroke-width:1.17752624"
     id="path3748"
     d="m 31.358399,28.411333 c 1.859948,-1.081036 3.590621,-2.332315 5.654878,-3.219178 2.898377,-1.245224 5.841377,-2.435613 8.762067,-3.653419 2.319925,-1.095681 4.9491,-1.646902 7.578705,-2.207965 1.42784,-0.249564 2.901128,-0.484426 4.367594,-0.332113 2.120871,0.380164 3.59615,1.493699 5.22802,2.460922 1.566006,1.08618 3.03638,2.303443 4.143696,3.657468 0.869812,1.064859 1.665099,2.096169 2.023692,3.311731 0.206989,0.74882 0.222701,1.51216 0.212086,2.272362 0.102467,0.631923 -0.11485,1.201715 -0.410028,1.787056 -0.299826,0.69458 -0.715193,1.374769 -1.279864,1.978948 -0.61206,0.690903 -1.322878,1.324672 -2.077786,1.935438 -0.819585,0.715629 -1.782242,1.325437 -2.81112,1.87771 -2.779911,1.549082 -5.942454,2.581048 -9.029164,3.856653 -0.179741,0.07428 -0.348794,0.164963 -0.5412,0.220335 -0.188793,0.05433 -0.394607,0.0705 -0.59191,0.105755 -0.199519,0.06579 -0.399038,0.131585 -0.598557,0.197378 -1.108059,0.324881 -2.248421,0.591164 -3.397,0.829943 -0.394267,0.129028 -0.870319,0.130037 -1.26297,0.260579 -0.188789,0.06277 -0.694039,0.329584 -0.513549,0.255195 2.431027,-1.001941 4.853218,-2.014994 7.279827,-3.022491 -0.491739,0.19542 -0.944355,0.436706 -1.350862,0.718169 -0.615645,0.389507 -1.150992,0.769462 -1.537946,1.295232 -0.315963,0.371019 -0.543311,0.773707 -0.643499,1.20203 -0.05331,0.552928 -0.06915,1.107866 -0.06399,1.662073 0.0083,0.922766 -0.05286,1.846169 0.02417,2.767524 0.199145,1.055836 0.6144,2.082799 0.876398,3.131711 0.208572,1.228091 0.382513,2.459672 0.570185,3.689981 0.165995,1.185893 0.209205,2.379109 0.278556,3.56959 0.02836,0.852814 0.01095,1.704727 0.01,2.557644 -0.06285,0.664681 0.245581,1.29448 0.408634,1.937753 0.152323,0.517021 0.180628,1.049658 0.197922,1.576798 0.01398,0.403554 0.01672,0.806978 0.02011,1.210668 -0.0082,0.094 0.009,0.191155 0.01956,0.283322 0,0 -7.846556,2.876819 -7.846556,2.876819 v 0 c 0.01165,-0.09632 0.03034,-0.196231 0.02277,-0.294381 0.0067,-0.402437 0.01345,-0.804946 0.01303,-1.207308 -0.0098,-0.499524 -0.01137,-1.001675 -0.122877,-1.496175 -0.155279,-0.681805 -0.488661,-1.352933 -0.436754,-2.050033 0.0022,-0.849149 -0.0067,-1.697434 -0.0049,-2.546539 0.0122,-1.184241 -0.02439,-2.368967 -0.174856,-3.548933 -0.158794,-1.21637 -0.421065,-2.420683 -0.598953,-3.634598 -0.227078,-1.074131 -0.652997,-2.114691 -0.879337,-3.185992 -0.142525,-0.926942 -0.113878,-1.855411 -0.129949,-2.786952 9.94e-4,-0.568342 -0.04433,-1.136561 0.0026,-1.704503 0.0161,-0.517371 0.156166,-0.989237 0.494443,-1.455505 0.445126,-0.505602 0.644064,-1.130533 1.444161,-1.427585 0.397791,-0.327808 0.762044,-0.615196 1.24097,-0.864765 4.305065,-1.792773 5.80249,-2.903824 9.528373,-3.59863 1.119727,-0.267717 2.251195,-0.511965 3.325861,-0.868511 0.665174,-0.186941 0.560501,-0.141823 1.143874,-0.359439 0.184357,-0.06877 0.727706,-0.288087 0.548482,-0.212588 -12.472679,5.254139 -8.162295,3.611961 -5.785518,2.369997 1.014871,-0.547613 2.063067,-1.056475 2.906902,-1.75098 0.687971,-0.62315 1.475891,-1.173533 2.069077,-1.850983 0.341133,-0.38554 0.146986,-0.203027 0.585062,-0.546085 0.346221,-0.375815 0.502583,-0.861854 0.798884,-1.257049 0.169595,-0.560501 0.653056,-1.039433 0.535759,-1.641927 -0.0011,-0.725774 0.02515,-1.454888 -0.104949,-2.176293 -0.268791,-1.159268 -0.994026,-2.13832 -1.791799,-3.154788 -1.092769,-1.287128 -2.457995,-2.455868 -3.99744,-3.477995 -1.509659,-0.913047 -2.928793,-1.946471 -4.994625,-2.102082 -1.402512,0.02634 -2.790195,0.1847 -4.134398,0.48141 -2.548588,0.566147 -5.060655,1.158099 -7.312824,2.22702 11.873657,-5.030311 2.395979,-1.135801 0.136299,0.724428 0,0 -8.027408,2.346143 -8.027408,2.346143 z"
     inkscape:connector-curvature="0" /><path
     style="fill:#ff2a2a"
     id="path3750"
     d="m 47.153607,78.118262 c -0.166881,-0.005 -0.334709,-0.03334 -0.500643,-0.01491 -0.10041,0.01116 -1.070347,0.254397 -1.159261,0.293072 -0.17089,0.07433 -0.634702,0.390475 -0.471926,0.29974 4.915953,-2.740258 6.388018,-3.988122 4.56204,-2.483738 -0.484847,0.41643 -0.747978,0.964897 -0.961048,1.549802 -0.08085,0.301431 -0.0433,0.613386 -0.06088,0.919997 -0.0014,0.02468 -0.0035,-0.04932 -0.0053,-0.07398 0.119385,0.141141 0.276645,0.01822 0.431541,0.05184 0.560817,0.121707 -0.0029,0.124651 0.445896,0.09993 0.499752,-0.05521 1.0024,-0.06674 1.50433,-0.08662 0.290606,-0.08402 0.657609,0.07838 0.941775,-0.01805 0.0582,-0.01975 0.194132,-0.149277 0.140344,-0.119555 -1.751998,0.968103 -3.492075,1.957623 -5.238112,2.936434 0.523892,-0.269126 0.956525,-0.669134 1.36896,-1.084229 0.332449,-0.395984 0.675848,-0.80811 0.892362,-1.282173 0.21734,-0.339753 0.232035,-0.758426 0.261213,-1.150285 0.05373,-0.393027 0.0064,-0.403023 -0.298568,-0.602753 -0.346327,-0.06987 -0.701845,-0.08177 -1.054406,-0.08476 -0.06562,1.42e-4 -0.134996,-0.02146 -0.196857,4.25e-4 -0.111337,0.03939 -0.181784,0.15087 -0.270344,0.229003 -0.03678,0.03245 -0.150046,0.124967 -0.107675,0.100268 5.29523,-3.086711 6.469444,-4.766941 5.1279,-2.911292 -0.322211,0.158695 -0.451663,0.391335 -0.511935,0.737642 -0.194287,0.389107 -0.355585,0.332213 -0.439683,0.816095 0.08289,0.37138 -0.251872,0.511917 -0.346602,0.803968 -0.0032,0.0127 -0.0064,0.0254 -0.0096,0.0381 0,0 -5.777242,2.629231 -5.777242,2.629231 v 0 c 0.0072,-0.0093 0.01443,-0.01865 0.02165,-0.02798 0.159228,-0.276268 0.0724,-0.567095 0.466404,-0.624033 0.0016,-0.236571 -0.04572,-0.854377 0.147054,-1.033082 0.04299,-0.03985 0.117169,-0.0039 0.175753,-0.0058 0.296752,-0.174838 0.08083,-0.821128 0.410294,-1.011047 2.39303,-0.572543 3.907306,-3.702747 6.439571,-3.42246 0.442066,0.04659 0.89442,0.11894 1.262495,0.387003 0.380635,0.312377 0.662565,0.615785 0.594635,1.136858 -4.62e-4,0.475613 -0.0633,0.945667 -0.137581,1.414796 -0.298962,0.467577 -0.49867,1.003811 -0.857858,1.438075 -0.39061,0.450064 -0.795597,0.899491 -1.281927,1.23927 -5.641581,3.179735 -3.699616,3.133112 -6.800041,3.189268 -0.525404,0.01905 -1.056962,0.08366 -1.579489,0.0015 -0.413971,-0.123846 -0.858277,-0.134567 -1.134863,-0.52159 -0.361146,-0.530306 -0.185218,-0.736084 -0.187342,-1.355106 0.04858,-0.723902 0.455619,-1.356085 0.84156,-1.950053 2.289311,-2.170552 5.233497,-4.087469 8.437914,-4.142944 0,0 -5.084562,3.69415 -5.084562,3.69415 z"
     inkscape:connector-curvature="0" /></svg>